<svg width="161" height="49" viewBox="0 0 161 49" fill="none" xmlns="http://www.w3.org/2000/svg">
<path d="M57.7606 39V11H69.8806C72.3873 11 74.5473 11.4133 76.3606 12.24C78.174 13.04 79.574 14.2 80.5606 15.72C81.5473 17.24 82.0406 19.0533 82.0406 21.16C82.0406 23.24 81.5473 25.04 80.5606 26.56C79.574 28.08 78.174 29.2533 76.3606 30.08C74.5473 30.88 72.3873 31.28 69.8806 31.28H61.3606L64.2406 28.36V39H57.7606ZM64.2406 29.08L61.3606 26H69.5206C71.5206 26 73.014 25.5733 74.0006 24.72C74.9873 23.8667 75.4806 22.68 75.4806 21.16C75.4806 19.6133 74.9873 18.4133 74.0006 17.56C73.014 16.7067 71.5206 16.28 69.5206 16.28H61.3606L64.2406 13.2V29.08ZM85.2175 39V9.32H91.4575V39H85.2175ZM104.929 39.32C103.142 39.32 101.542 38.9733 100.129 38.28C98.7421 37.5867 97.6621 36.5333 96.8888 35.12C96.1154 33.68 95.7288 31.8533 95.7288 29.64V17.48H101.969V28.72C101.969 30.5067 102.342 31.8267 103.089 32.68C103.862 33.5067 104.942 33.92 106.329 33.92C107.289 33.92 108.142 33.72 108.889 33.32C109.635 32.8933 110.222 32.2533 110.649 31.4C111.075 30.52 111.289 29.4267 111.289 28.12V17.48H117.529V39H111.609V33.08L112.689 34.8C111.969 36.2933 110.902 37.4267 109.489 38.2C108.102 38.9467 106.582 39.32 104.929 39.32ZM130.71 39.32C128.176 39.32 126.203 38.68 124.79 37.4C123.376 36.0933 122.67 34.16 122.67 31.6V12.72H128.91V31.52C128.91 32.4267 129.15 33.1333 129.63 33.64C130.11 34.12 130.763 34.36 131.59 34.36C132.576 34.36 133.416 34.0933 134.11 33.56L135.79 37.96C135.15 38.4133 134.376 38.76 133.47 39C132.59 39.2133 131.67 39.32 130.71 39.32ZM119.35 22.76V17.96H134.27V22.76H119.35ZM147.468 39.32C145.175 39.32 143.135 38.84 141.348 37.88C139.588 36.92 138.188 35.6133 137.148 33.96C136.135 32.28 135.628 30.3733 135.628 28.24C135.628 26.08 136.135 24.1733 137.148 22.52C138.188 20.84 139.588 19.5333 141.348 18.6C143.135 17.64 145.175 17.16 147.468 17.16C149.735 17.16 151.762 17.64 153.548 18.6C155.335 19.5333 156.735 20.8267 157.748 22.48C158.762 24.1333 159.268 26.0533 159.268 28.24C159.268 30.3733 158.762 32.28 157.748 33.96C156.735 35.6133 155.335 36.92 153.548 37.88C151.762 38.84 149.735 39.32 147.468 39.32ZM147.468 34.2C148.508 34.2 149.442 33.96 150.268 33.48C151.095 33 151.748 32.32 152.228 31.44C152.708 30.5333 152.948 29.4667 152.948 28.24C152.948 26.9867 152.708 25.92 152.228 25.04C151.748 24.16 151.095 23.48 150.268 23C149.442 22.52 148.508 22.28 147.468 22.28C146.428 22.28 145.495 22.52 144.668 23C143.842 23.48 143.175 24.16 142.668 25.04C142.188 25.92 141.948 26.9867 141.948 28.24C141.948 29.4667 142.188 30.5333 142.668 31.44C143.175 32.32 143.842 33 144.668 33.48C145.495 33.96 146.428 34.2 147.468 34.2Z" fill="#232323"/>
<path d="M38.6459 35.9814C34.0251 43.5335 34.6558 43.5335 31.0938 43.5335C26.9228 43.5335 0 24.2798 0 20.1088C0 15.9379 26.2016 31.7905 30.3725 31.7905C34.5434 31.7905 50.6209 16.4096 38.6459 35.9814Z" fill="#232323"/>
<circle cx="23.5184" cy="12.5521" r="7.55211" fill="#232323"/>
</svg>
